<svg width="52" height="40" viewBox="0 0 52 40" fill="none" xmlns="http://www.w3.org/2000/svg">
<g clip-path="url(#clip0_15_10)">
<path fill-rule="evenodd" clip-rule="evenodd" d="M22.1112 0C26.493 0.000157557 30.0452 3.87456 30.0453 8.65224C30.0453 8.91866 30.0342 9.18398 30.0187 9.44828H36.7018C43.2022 9.44828 45.7548 18.6407 40.3461 22.5723L33.2738 27.7122C31.7514 28.8193 32.1687 31.3743 33.9483 31.84C34.5301 31.9921 35.1446 31.8658 35.6357 31.4934L39.7389 28.1927C39.8947 28.0675 40.0825 28 40.2753 28H51.5447C51.9885 28 52.1691 28.6281 51.8062 28.909L39.8771 38.1397C37.6462 39.8319 34.8576 40.4048 32.215 39.7133C24.1339 37.5986 22.24 26.0015 29.1545 20.9749L33.8733 17.5457H26.6319H21.9976C20.6669 17.5457 19.4107 17.1926 18.305 16.5691C19.4833 17.4535 22.3963 18.4377 24.8538 18.6251C25.0728 18.6251 25.4284 18.8385 25.0049 19.3183L10.1267 35.7067C9.95621 35.8945 9.7249 36 9.48372 36H0.455344C0.0504274 36 -0.152299 35.4613 0.134101 35.1463L17.5024 16.0472C15.3623 14.4709 13.955 11.8013 13.9547 8.77349C13.9547 3.92875 17.5567 0 22 0H22.1112ZM22.272 6.74915C21.2467 6.74915 20.4154 7.35337 20.4154 8.09871C20.4158 8.71319 20.9815 9.23009 21.7546 9.39292C21.8299 9.42847 21.9129 9.44828 22 9.44828H22.5512C22.5522 9.44225 22.5514 9.43586 22.5524 9.42983C23.4444 9.33152 24.1282 8.77441 24.1286 8.09871C24.1286 7.35337 23.2973 6.74915 22.272 6.74915Z" fill="#3F39D5"/>
</g>
<defs>
<clipPath id="clip0_15_10">
<rect width="52" height="40" fill="white"/>
</clipPath>
</defs>
</svg>
